<?xml version="1.0" encoding="utf-8"?>
<!-- Generator: Adobe Illustrator 16.0.0, SVG Export Plug-In . SVG Version: 6.00 Build 0)  -->
<!DOCTYPE svg PUBLIC "-//W3C//DTD SVG 1.1//EN" "http://www.w3.org/Graphics/SVG/1.1/DTD/svg11.dtd">
<svg version="1.1" id="Layer_1" xmlns="http://www.w3.org/2000/svg" xmlns:xlink="http://www.w3.org/1999/xlink" x="0px" y="0px"
	 width="507px" height="101px" viewBox="398 -3 507 101" enable-background="new 398 -3 507 101" xml:space="preserve">
<path fill="none" d="M452.918,19.93h23.745c3.537,0,6.315,2.779,6.315,6.314v4.801c0,3.537-2.779,6.314-6.315,6.314h-17.052
	l5.053,16.799H482.6c3.537,0,6.315,2.778,6.315,6.315V65.4c0,3.41-2.778,6.315-6.315,6.315h-29.682V19.93z M455.773,3.131
	l-19.526,19.527v46.2l19.528,19.527h27.205c12.504,0,22.733-10.229,22.733-22.733v-5.559c0-7.577-3.788-14.397-9.472-18.439
	c2.146-3.789,3.537-8.336,3.537-13.009v-2.779c0-12.504-10.23-22.733-22.735-22.733h-21.271V3.131z"/>
<linearGradient id="SVGID_2_" gradientUnits="userSpaceOnUse" x1="-1688.3535" y1="-1226.915" x2="-1688.2203" y2="-1226.915" gradientTransform="matrix(45.0075 465.0775 -465.0775 45.0075 -494500.6875 840449)">
	<stop  offset="0" style="stop-color:#21C3E5"/>
	<stop  offset="1" style="stop-color:#0C5CA2"/>
</linearGradient>
<polygon fill="url(#SVGID_2_)" points="159.068,4.362 167.889,95.486 90.891,102.938 82.072,11.813 "/>
<g>
	<defs>
		<path id="SVGID_1_" d="M452.918,19.93h23.745c3.537,0,6.315,2.779,6.315,6.314v4.801c0,3.537-2.779,6.314-6.315,6.314h-17.052
			l5.053,16.799H482.6c3.537,0,6.315,2.778,6.315,6.315V65.4c0,3.41-2.778,6.315-6.315,6.315h-29.682V19.93z M455.773,3.131
			l-19.526,19.527v46.2l19.528,19.527h27.205c12.504,0,22.733-10.229,22.733-22.733v-5.559c0-7.577-3.788-14.397-9.472-18.439
			c2.146-3.789,3.537-8.336,3.537-13.009v-2.779c0-12.504-10.23-22.733-22.735-22.733h-21.271V3.131z"/>
	</defs>
	<clipPath id="SVGID_3_">
		<use xlink:href="#SVGID_1_"  overflow="visible"/>
	</clipPath>
	
		<linearGradient id="SVGID_5_" gradientUnits="userSpaceOnUse" x1="353.7813" y1="47.1958" x2="435.7832" y2="47.1958" gradientTransform="matrix(0.9156 0.4022 -0.4022 0.9156 128.5455 -155.2515)">
		<stop  offset="0" style="stop-color:#21C3E5"/>
		<stop  offset="1" style="stop-color:#0C5CA2"/>
	</linearGradient>
	<polygon clip-path="url(#SVGID_3_)" fill="url(#SVGID_5_)" points="486.631,113.121 411.555,80.141 455.393,-19.655 
		530.469,13.325 	"/>
</g>
<path d="M528.797,73.358c0.215-0.215,0.336-0.506,0.336-0.811V54.963h2.253v31.021c-1.118,0.455-1.909,1.55-1.909,2.83
	c0,1.686,1.371,3.055,3.056,3.055c1.686,0,3.055-1.37,3.055-3.055c0-1.279-0.791-2.376-1.909-2.831v-31.02h2.254v7.427
	c0,0.304,0.12,0.595,0.336,0.81l3.246,3.248c-0.142,0.352-0.222,0.734-0.222,1.137c0,1.685,1.37,3.056,3.056,3.056
	c1.685,0,3.055-1.371,3.055-3.056s-1.37-3.055-3.055-3.055c-0.443,0-0.863,0.098-1.244,0.268l-2.881-2.881v-6.953h0.184V28.266
	l-8.336-8.336h32.839v-0.856L546.967,3.131h-57.953c2.272,1.203,4.35,2.734,6.19,4.576c2.362,2.363,4.219,5.111,5.519,8.168
	c0.562,1.321,1.006,2.676,1.334,4.055h19.678v35.033H522v9.025c-1.118,0.454-1.908,1.551-1.908,2.83c0,1.686,1.37,3.055,3.055,3.055
	s3.056-1.369,3.056-3.055c0-1.279-0.792-2.375-1.91-2.83v-9.025h2.551v17.11l-2.88,2.879c-0.382-0.171-0.802-0.268-1.244-0.268
	c-1.685,0-3.056,1.37-3.056,3.055s1.371,3.056,3.056,3.056c1.684,0,3.055-1.371,3.055-3.056c0-0.401-0.08-0.784-0.222-1.136
	L528.797,73.358z M542.346,66.821c0.422,0,0.764,0.342,0.764,0.764c0,0.42-0.342,0.765-0.764,0.765
	c-0.421,0-0.764-0.343-0.764-0.765S541.925,66.821,542.346,66.821 M532.531,88.05c0.422,0,0.764,0.343,0.764,0.764
	c0,0.422-0.342,0.764-0.764,0.764s-0.764-0.342-0.764-0.764C531.768,88.393,532.109,88.05,532.531,88.05 M523.146,67.583
	c-0.422,0-0.765-0.343-0.765-0.764c0-0.42,0.343-0.764,0.765-0.764c0.42,0,0.764,0.343,0.764,0.764S523.566,67.583,523.146,67.583
	 M522.718,78.504c-0.422,0-0.764-0.342-0.764-0.764c0-0.42,0.342-0.764,0.764-0.764c0.421,0,0.765,0.343,0.765,0.764
	C523.48,78.163,523.139,78.504,522.718,78.504"/>
<path id="SVGID_4_" fill="#FFFFFF" d="M556.559,6.02l2.527,2.83c1.684,1.888,3.391,3.752,5.098,5.615
	c3.42,3.724,6.875,7.41,10.351,11.078c1.745,1.825,3.481,3.66,5.237,5.475l2.629,2.729l2.644,2.713
	c3.117,3.202,6.254,6.383,9.404,9.549c-1.499,1.5-2.988,3.009-4.486,4.509l-5.688,5.771c-3.771,3.865-7.537,7.738-11.258,11.653
	c-3.728,3.911-7.431,7.847-11.092,11.821c-1.828,1.992-3.654,3.983-5.459,5.999l-2.705,3.022c-0.89,1.021-1.791,2.027-2.672,3.058
	c1.029-0.883,2.037-1.783,3.057-2.674l3.023-2.705c2.014-1.804,4.006-3.63,5.997-5.458c3.978-3.66,7.911-7.363,11.823-11.09
	c3.916-3.723,7.787-7.486,11.654-11.259l5.769-5.688c1.911-1.907,3.836-3.801,5.735-5.719l1.229-1.242l-1.229-1.225
	c-3.576-3.564-7.168-7.115-10.787-10.639l-2.715-2.643l-2.728-2.63c-1.813-1.757-3.647-3.493-5.476-5.237
	c-3.668-3.476-7.354-6.932-11.076-10.351c-1.863-1.708-3.729-3.414-5.615-5.098l-2.83-2.526c-0.953-0.833-1.896-1.674-2.859-2.498
	C554.885,4.124,555.727,5.067,556.559,6.02"/>
<path d="M448.334,3.16c-0.824,0.962-1.666,1.906-2.498,2.858l-2.527,2.828c-1.685,1.889-3.392,3.753-5.1,5.615
	c-3.42,3.723-6.875,7.41-10.35,11.078c-1.746,1.824-3.481,3.66-5.238,5.475l-2.629,2.728l-2.643,2.714
	c-1.758,1.813-3.531,3.611-5.303,5.41c-1.768,1.805-3.554,3.588-5.333,5.381v-2.466c3.827,3.812,7.626,7.649,11.41,11.503
	c3.774,3.864,7.538,7.738,11.26,11.653c3.728,3.911,7.431,7.846,11.091,11.823c1.828,1.99,3.653,3.983,5.457,5.999l2.705,3.023
	c0.889,1.02,1.791,2.028,2.67,3.057c-1.029-0.879-2.037-1.781-3.057-2.67l-3.023-2.705c-2.016-1.804-4.009-3.628-6-5.458
	c-3.978-3.66-7.912-7.362-11.822-11.09c-3.915-3.723-7.789-7.486-11.653-11.26c-3.854-3.783-7.692-7.583-11.503-11.41l-1.234-1.24
	l1.234-1.226c1.792-1.778,3.576-3.565,5.38-5.333c1.8-1.771,3.599-3.544,5.411-5.303l2.714-2.643l2.728-2.629
	c1.814-1.758,3.65-3.492,5.476-5.238c3.667-3.475,7.354-6.93,11.076-10.35c1.862-1.708,3.728-3.414,5.614-5.099l2.83-2.528
	C446.43,4.826,447.373,3.984,448.334,3.16"/>
<g>
	<defs>
		<path id="SVGID_6_" d="M556.559,6.02l2.527,2.83c1.684,1.888,3.391,3.752,5.098,5.615c3.42,3.724,6.875,7.41,10.351,11.078
			c1.745,1.825,3.481,3.66,5.237,5.475l2.629,2.729l2.644,2.713c3.117,3.202,6.254,6.383,9.404,9.549
			c-1.499,1.5-2.988,3.009-4.486,4.509l-5.688,5.771c-3.771,3.865-7.537,7.738-11.258,11.653
			c-3.728,3.911-7.431,7.847-11.092,11.821c-1.828,1.992-3.654,3.983-5.459,5.999l-2.705,3.022c-0.89,1.021-1.791,2.027-2.672,3.058
			c1.029-0.883,2.037-1.783,3.057-2.674l3.023-2.705c2.014-1.804,4.006-3.63,5.997-5.458c3.978-3.66,7.911-7.363,11.823-11.09
			c3.916-3.723,7.787-7.486,11.654-11.259l5.769-5.688c1.911-1.907,3.836-3.801,5.735-5.719l1.229-1.242l-1.229-1.225
			c-3.576-3.564-7.168-7.115-10.787-10.639l-2.715-2.643l-2.728-2.63c-1.813-1.757-3.647-3.493-5.476-5.237
			c-3.668-3.476-7.354-6.932-11.076-10.351c-1.863-1.708-3.729-3.414-5.615-5.098l-2.83-2.526c-0.953-0.833-1.896-1.674-2.859-2.498
			C554.885,4.124,555.727,5.067,556.559,6.02"/>
	</defs>
	<clipPath id="SVGID_7_">
		<use xlink:href="#SVGID_6_"  overflow="visible"/>
	</clipPath>
	<linearGradient id="SVGID_8_" gradientUnits="userSpaceOnUse" x1="569.9082" y1="-0.1821" x2="578.0495" y2="79.1959">
		<stop  offset="0" style="stop-color:#21C3E5"/>
		<stop  offset="1" style="stop-color:#0C5CA2"/>
	</linearGradient>
	<rect x="545.512" y="-13.267" clip-path="url(#SVGID_7_)" fill="url(#SVGID_8_)" width="58.673" height="122.5"/>
</g>
<linearGradient id="SVGID_9_" gradientUnits="userSpaceOnUse" x1="-1688.354" y1="-1225.4785" x2="-1688.2207" y2="-1225.4785" gradientTransform="matrix(45.0075 465.0775 -465.0775 45.0075 -493729.6875 840374.25)">
	<stop  offset="0" style="stop-color:#21C3E5"/>
	<stop  offset="1" style="stop-color:#0C5CA2"/>
</linearGradient>
<polygon display="none" fill="url(#SVGID_9_)" points="252.93,6.421 261.879,98.908 205.536,104.361 196.586,11.874 "/>
<g>
	<polygon points="777.991,35.16 767.937,35.16 767.937,65.658 759,65.658 759,35.16 748.945,35.16 748.945,26.558 777.991,26.558 	
		"/>
	<polygon points="812.065,57.056 812.065,65.658 787.487,65.658 787.487,26.558 811.786,26.558 811.786,35.16 796.425,35.16 
		796.425,41.64 810.39,41.64 810.39,50.13 796.425,50.13 796.425,57.056 	"/>
	<path d="M820.724,46.109c0-11.508,8.547-20.332,20.333-20.332c7.095,0,13.351,3.52,16.757,9.049l-7.707,4.469
		c-1.731-3.016-5.084-4.805-9.05-4.805c-6.927,0-11.396,4.638-11.396,11.619s4.469,11.618,11.396,11.618
		c3.966,0,7.373-1.788,9.05-4.804l7.707,4.469c-3.352,5.529-9.606,9.049-16.757,9.049C829.271,66.441,820.724,57.615,820.724,46.109
		"/>
	<polygon points="897.753,26.558 897.753,65.658 888.815,65.658 888.815,50.13 876.526,50.13 876.526,65.658 867.59,65.658 
		867.59,26.558 876.526,26.558 876.526,41.529 888.815,41.529 888.815,26.558 	"/>
</g>
<polygon fill="none" points="716.548,26.558 716.548,65.658 741.125,65.658 741.125,57.056 725.484,57.056 725.484,50.13 
	739.449,50.13 739.449,41.64 725.484,41.64 725.484,35.16 740.846,35.16 740.846,26.558 "/>
<linearGradient id="SVGID_11_" gradientUnits="userSpaceOnUse" x1="-1689.354" y1="-1228.1338" x2="-1689.2205" y2="-1228.1338" gradientTransform="matrix(20.0033 195.0325 -195.0325 20.0033 -205603.3125 354157.875)">
	<stop  offset="0" style="stop-color:#21C3E5"/>
	<stop  offset="1" style="stop-color:#0C5CA2"/>
</linearGradient>
<polygon display="none" fill="url(#SVGID_11_)" points="144.86,117.053 149.084,158.24 120.794,161.143 116.57,119.954 "/>
<path fill="none" d="M695.6,26.558v25.695c0,2.96-1.396,5.474-6.145,5.474s-6.145-2.514-6.145-5.474V26.558h-8.938v26.477
	c0,8.379,6.479,13.406,15.082,13.406c8.603,0,15.082-5.027,15.082-13.406V26.558H695.6z"/>
<linearGradient id="SVGID_12_" gradientUnits="userSpaceOnUse" x1="-1689.354" y1="-1229.4033" x2="-1689.2206" y2="-1229.4033" gradientTransform="matrix(20.0033 195.0325 -195.0325 20.0033 -205890.0625 354187.25)">
	<stop  offset="0" style="stop-color:#21C3E5"/>
	<stop  offset="1" style="stop-color:#0C5CA2"/>
</linearGradient>
<polygon display="none" fill="url(#SVGID_12_)" points="108.214,116.484 112.576,159.016 78.679,162.491 74.317,119.962 "/>
<polygon fill="none" points="642.814,26.558 642.814,65.658 665.716,65.658 665.716,57.056 651.751,57.056 651.751,26.558 "/>
<linearGradient id="SVGID_14_" gradientUnits="userSpaceOnUse" x1="-1689.3535" y1="-1230.6475" x2="-1689.2201" y2="-1230.6475" gradientTransform="matrix(20.0033 195.0325 -195.0325 20.0033 -206167.3125 354215.625)">
	<stop  offset="0" style="stop-color:#21C3E5"/>
	<stop  offset="1" style="stop-color:#0C5CA2"/>
</linearGradient>
<polygon display="none" fill="url(#SVGID_14_)" points="69.468,117.223 73.675,158.24 47.043,160.973 42.836,119.954 "/>
<path fill="none" d="M613.121,49.795h7.486c2.233,0,3.687,1.563,3.687,3.741c0,2.18-1.452,3.742-3.687,3.742h-7.486V49.795z
	 M613.121,34.937h6.369c2.066,0,3.408,1.452,3.408,3.463c0,2.012-1.396,3.463-3.408,3.463h-6.369V34.937z M604.185,26.558V65.66
	h16.423c6.981,0,12.623-4.524,12.623-11.451c0-3.967-1.898-6.981-4.804-8.825c2.123-1.845,3.407-4.413,3.407-7.651
	c0-6.76-5.53-11.173-12.346-11.173L604.185,26.558L604.185,26.558z"/>
<linearGradient id="SVGID_15_" gradientUnits="userSpaceOnUse" x1="-1689.3535" y1="-1231.8071" x2="-1689.2201" y2="-1231.8071" gradientTransform="matrix(20.0033 195.0325 -195.0325 20.0033 -206428.8125 354242.5)">
	<stop  offset="0" style="stop-color:#21C3E5"/>
	<stop  offset="1" style="stop-color:#0C5CA2"/>
</linearGradient>
<polygon fill="url(#SVGID_15_)" points="36.92,116.6 41.19,158.24 8.479,161.596 4.208,119.954 "/>
<g>
	<defs>
		<path id="SVGID_17_" d="M716.548,26.558v39.1h24.577v-8.602h-15.641V50.13h13.965v-8.49h-13.965v-6.48h15.361v-8.602H716.548z
			 M695.6,26.558v25.695c0,2.96-1.396,5.474-6.145,5.474s-6.145-2.514-6.145-5.474V26.558h-8.938v26.477
			c0,8.379,6.479,13.406,15.082,13.406c8.603,0,15.082-5.027,15.082-13.406V26.558H695.6z M642.814,26.558v39.1h22.901v-8.602
			h-13.965V26.558H642.814z M613.121,49.795h7.486c2.233,0,3.687,1.563,3.687,3.741c0,2.18-1.452,3.742-3.687,3.742h-7.486V49.795z
			 M613.121,34.937h6.369c2.066,0,3.408,1.452,3.408,3.463c0,2.012-1.396,3.463-3.408,3.463h-6.369V34.937z M604.185,26.558V65.66
			h16.423c6.981,0,12.623-4.524,12.623-11.451c0-3.967-1.898-6.981-4.804-8.825c2.123-1.845,3.407-4.413,3.407-7.651
			c0-6.76-5.53-11.173-12.346-11.173L604.185,26.558L604.185,26.558z"/>
	</defs>
	<clipPath id="SVGID_18_">
		<use xlink:href="#SVGID_17_"  overflow="visible"/>
	</clipPath>
	<linearGradient id="SVGID_19_" gradientUnits="userSpaceOnUse" x1="669.4209" y1="19.2363" x2="674.7492" y2="71.1875">
		<stop  offset="0" style="stop-color:#21C3E5"/>
		<stop  offset="1" style="stop-color:#0C5CA2"/>
	</linearGradient>
	<rect x="601.423" y="16.008" clip-path="url(#SVGID_18_)" fill="url(#SVGID_19_)" width="142.464" height="69.5"/>
</g>
<path d="M609.377,78.055c0,1.032-0.828,1.858-1.86,1.858h-2.94v-6.814h2.717c0.992,0,1.792,0.809,1.792,1.791
	c0,0.662-0.351,1.208-0.876,1.49C608.89,76.643,609.377,77.277,609.377,78.055 M605.093,73.585v2.609h2.2
	c0.701,0,1.275-0.584,1.275-1.306c0-0.72-0.574-1.305-1.275-1.305L605.093,73.585L605.093,73.585z M608.861,78.055
	c0-0.76-0.604-1.373-1.345-1.373h-2.424v2.746h2.424C608.258,79.428,608.861,78.814,608.861,78.055"/>
<path d="M611.412,71.931c0-0.254,0.193-0.458,0.457-0.458c0.254,0,0.449,0.204,0.449,0.458c0,0.253-0.195,0.457-0.449,0.457
	C611.607,72.388,611.412,72.184,611.412,71.931 M612.133,79.914h-0.516v-6.814h0.516V79.914z"/>
<polygon points="618.529,79.428 618.529,79.914 614.801,79.914 614.801,73.099 615.316,73.099 615.316,79.428 "/>
<path d="M626.572,77.003c0,1.646-1.256,3.019-3.291,3.019c-2.113,0-3.584-1.567-3.584-3.515c0-1.948,1.471-3.516,3.545-3.516
	c1.266,0,2.365,0.662,2.931,1.646l-0.458,0.272c-0.448-0.856-1.402-1.422-2.473-1.422c-1.793,0-3.028,1.344-3.028,3.02
	c0,1.674,1.237,3.018,3.067,3.018c1.654,0,2.658-1.021,2.765-2.297h-2.892v-0.486h3.416v0.262H626.572z"/>
<path d="M628.637,71.931c0-0.254,0.193-0.458,0.458-0.458c0.253,0,0.448,0.204,0.448,0.458c0,0.253-0.195,0.457-0.448,0.457
	C628.83,72.388,628.637,72.184,628.637,71.931 M629.357,79.914h-0.517v-6.814h0.517V79.914z"/>
<path d="M631.519,78.416l0.448-0.264c0.232,0.817,0.925,1.373,2.044,1.373c1.14,0,1.714-0.584,1.714-1.363
	c0-0.817-0.721-1.129-1.762-1.461c-1.141-0.369-2.162-0.69-2.162-1.879c0-1.119,0.906-1.83,2.064-1.83
	c1.119,0,1.859,0.643,2.189,1.432l-0.438,0.243c-0.254-0.613-0.779-1.179-1.754-1.179c-0.943,0-1.537,0.556-1.537,1.314
	c0,0.816,0.69,1.07,1.664,1.393c1.209,0.398,2.26,0.778,2.26,1.957c0,1.129-0.887,1.869-2.24,1.869
	C632.736,80.022,631.83,79.379,631.519,78.416"/>
<path d="M642.316,78.181H638.9l-0.662,1.732h-0.545l2.647-6.814h0.545l2.64,6.814h-0.547L642.316,78.181z M642.132,77.695
	l-1.519-3.963l-1.52,3.963H642.132z"/>
<polygon points="646.863,77.111 646.863,79.914 646.348,79.914 646.348,77.111 643.865,73.099 644.449,73.099 646.611,76.615 
	648.763,73.099 649.347,73.099 "/>
<path d="M654.313,78.181h-3.418l-0.662,1.732h-0.545l2.648-6.814h0.545l2.638,6.814h-0.545L654.313,78.181z M654.128,77.695
	l-1.519-3.963l-1.52,3.963H654.128z"/>
<path d="M660.154,77.121h-2.151v2.793h-0.517v-6.814h2.688c1.11,0,2.015,0.905,2.015,2.016c0,0.926-0.633,1.705-1.5,1.938
	l1.694,2.862h-0.594L660.154,77.121z M658.003,76.633h2.172c0.827,0,1.499-0.683,1.499-1.519c0-0.849-0.672-1.529-1.499-1.529
	h-2.172V76.633z"/>
<polygon points="670.252,77.111 670.252,79.914 669.736,79.914 669.736,77.111 667.254,73.099 667.838,73.099 669.999,76.615 
	672.15,73.099 672.736,73.099 "/>
<path d="M677.701,78.181h-3.418l-0.662,1.732h-0.545l2.647-6.814h0.545l2.64,6.814h-0.545L677.701,78.181z M677.516,77.695
	l-1.52-3.963l-1.518,3.963H677.516z"/>
<polygon points="684.8,79.428 684.8,79.914 680.447,79.914 680.447,79.428 684.128,73.585 680.544,73.585 680.544,73.099 
	684.701,73.099 684.701,73.585 681.021,79.428 "/>
<rect x="686.941" y="73.099" width="0.517" height="6.814"/>
<polygon points="693.855,79.428 693.855,79.914 690.125,79.914 690.125,73.099 690.641,73.099 690.641,79.428 "/>
<rect x="695.9" y="73.099" width="0.516" height="6.814"/>
<polygon points="705.246,79.914 704.73,79.914 704.73,73.859 702.209,78.045 702.121,78.045 699.599,73.859 699.599,79.914 
	699.083,79.914 699.083,73.099 699.726,73.099 702.16,77.13 704.594,73.099 705.246,73.099 "/>
<polygon points="710.768,73.099 711.332,73.099 713.58,79.242 715.841,73.099 716.396,73.099 713.854,79.914 713.309,79.914 "/>
<polygon points="722.277,79.428 722.277,79.914 718.353,79.914 718.353,73.099 722.228,73.099 722.228,73.585 718.869,73.585 
	718.869,76.234 721.984,76.234 721.984,76.721 718.869,76.721 718.869,79.428 "/>
<path d="M727.681,78.416l0.448-0.264c0.234,0.817,0.925,1.373,2.044,1.373c1.14,0,1.714-0.584,1.714-1.363
	c0-0.817-0.72-1.129-1.762-1.461c-1.139-0.369-2.162-0.69-2.162-1.879c0-1.119,0.904-1.83,2.064-1.83
	c1.119,0,1.858,0.643,2.189,1.432l-0.438,0.243c-0.254-0.613-0.779-1.179-1.752-1.179c-0.945,0-1.539,0.556-1.539,1.314
	c0,0.816,0.69,1.07,1.664,1.393c1.207,0.398,2.26,0.778,2.26,1.957c0,1.129-0.887,1.869-2.24,1.869
	C728.898,80.022,727.992,79.379,727.681,78.416"/>
<path d="M738.479,78.181h-3.416l-0.662,1.732h-0.545l2.647-6.814h0.545l2.639,6.814h-0.545L738.479,78.181z M738.294,77.695
	l-1.519-3.963l-1.52,3.963H738.294z"/>
<polygon points="746.648,73.099 746.648,79.914 746.191,79.914 742.169,74.053 742.169,79.914 741.654,79.914 741.654,73.099 
	742.101,73.099 746.132,78.96 746.132,73.099 "/>
<path d="M753.239,78.181h-3.417l-0.662,1.732h-0.545l2.646-6.814h0.546l2.639,6.814h-0.545L753.239,78.181z M753.055,77.695
	l-1.519-3.963l-1.52,3.963H753.055z"/>
<polygon points="757.786,77.111 757.786,79.914 757.272,79.914 757.272,77.111 754.788,73.099 755.372,73.099 757.534,76.615 
	759.687,73.099 760.271,73.099 "/>
<path d="M761.983,71.931c0-0.254,0.195-0.458,0.459-0.458c0.252,0,0.447,0.204,0.447,0.458c0,0.253-0.195,0.457-0.447,0.457
	C762.179,72.388,761.983,72.184,761.983,71.931 M762.704,79.914h-0.516v-6.814h0.516V79.914z"/>
<polygon points="773.132,73.585 770.989,73.585 770.989,79.914 770.465,79.914 770.465,73.585 768.321,73.585 768.321,73.099 
	773.132,73.099 "/>
<path d="M774.973,71.931c0-0.254,0.194-0.458,0.458-0.458c0.253,0,0.447,0.204,0.447,0.458c0,0.253-0.194,0.457-0.447,0.457
	C775.167,72.388,774.973,72.184,774.973,71.931 M775.694,79.914h-0.518v-6.814h0.518V79.914z"/>
<path d="M777.972,76.507c0-1.947,1.471-3.516,3.544-3.516c1.257,0,2.356,0.643,2.921,1.636l-0.457,0.263
	c-0.447-0.837-1.393-1.4-2.464-1.4c-1.791,0-3.026,1.344-3.026,3.019c0,1.674,1.235,3.019,3.026,3.019
	c1.081,0,2.035-0.574,2.483-1.432l0.457,0.264c-0.555,1.002-1.665,1.664-2.94,1.664C779.442,80.022,777.972,78.455,777.972,76.507"
	/>
<path d="M790.474,78.181h-3.417l-0.662,1.732h-0.546l2.648-6.814h0.546l2.639,6.814h-0.546L790.474,78.181z M790.288,77.695
	l-1.519-3.963l-1.52,3.963H790.288z"/>
<path d="M796.317,77.121h-2.152v2.793h-0.516v-6.814h2.688c1.109,0,2.015,0.905,2.015,2.016c0,0.926-0.633,1.705-1.499,1.938
	l1.694,2.862h-0.595L796.317,77.121z M794.163,76.633h2.173c0.827,0,1.499-0.683,1.499-1.519c0-0.849-0.672-1.529-1.499-1.529
	h-2.173V76.633z"/>
<polygon points="804.515,79.428 804.515,79.914 800.591,79.914 800.591,73.099 804.466,73.099 804.466,73.585 801.106,73.585 
	801.106,76.234 804.223,76.234 804.223,76.721 801.106,76.721 801.106,79.428 "/>
<polygon points="810.94,73.585 808.799,73.585 808.799,79.914 808.274,79.914 808.274,73.585 806.131,73.585 806.131,73.099 
	810.94,73.099 "/>
<polygon points="820.288,79.428 820.288,79.914 816.56,79.914 816.56,73.099 817.075,73.099 817.075,79.428 "/>
<path d="M822.129,71.931c0-0.254,0.194-0.458,0.458-0.458c0.253,0,0.447,0.204,0.447,0.458c0,0.253-0.194,0.457-0.447,0.457
	C822.323,72.388,822.129,72.184,822.129,71.931 M822.85,79.914h-0.517v-6.814h0.517V79.914z"/>
<polygon points="831.681,79.914 831.163,79.914 831.163,73.859 828.643,78.045 828.555,78.045 826.032,73.859 826.032,79.914 
	825.517,79.914 825.517,73.099 826.159,73.099 828.594,77.13 831.028,73.099 831.681,73.099 "/>
<path d="M834.144,71.931c0-0.254,0.195-0.458,0.458-0.458c0.253,0,0.448,0.204,0.448,0.458c0,0.253-0.195,0.457-0.448,0.457
	C834.339,72.388,834.144,72.184,834.144,71.931 M834.864,79.914h-0.517v-6.814h0.517V79.914z"/>
<polygon points="841.719,73.585 839.577,73.585 839.577,79.914 839.052,79.914 839.052,73.585 836.909,73.585 836.909,73.099 
	841.719,73.099 "/>
<polygon points="847.688,79.428 847.688,79.914 843.764,79.914 843.764,73.099 847.64,73.099 847.64,73.585 844.28,73.585 
	844.28,76.234 847.396,76.234 847.396,76.721 844.28,76.721 844.28,79.428 "/>
<path d="M855.7,76.507c0,1.879-1.334,3.406-3.213,3.406h-2.561v-6.814h2.561C854.366,73.099,855.7,74.627,855.7,76.507
	 M855.196,76.507c0-1.617-1.102-2.922-2.707-2.922h-2.045v5.843h2.045C854.095,79.428,855.196,78.123,855.196,76.507"/>
<path d="M863.725,80.022v0.438c0.497,0.059,0.886,0.311,0.886,0.729c0,0.479-0.418,0.896-1.897,0.779V81.57
	c0.983,0.098,1.471-0.068,1.471-0.381c0-0.281-0.321-0.419-0.896-0.419v-0.769c-1.09-0.107-1.859-0.711-2.143-1.588l0.447-0.264
	c0.234,0.818,0.925,1.373,2.045,1.373c1.141,0,1.714-0.584,1.714-1.363c0-0.816-0.721-1.129-1.763-1.459
	c-1.139-0.371-2.161-0.691-2.161-1.879c0-1.121,0.905-1.832,2.063-1.832c1.119,0,1.859,0.644,2.19,1.433l-0.438,0.243
	c-0.252-0.613-0.777-1.178-1.752-1.178c-0.944,0-1.539,0.555-1.539,1.313c0,0.817,0.691,1.071,1.666,1.392
	c1.207,0.399,2.259,0.779,2.259,1.957C865.876,79.252,865.03,79.992,863.725,80.022"/>
<path d="M867.862,71.931c0-0.254,0.194-0.458,0.457-0.458c0.254,0,0.448,0.204,0.448,0.458c0,0.253-0.194,0.457-0.448,0.457
	C868.058,72.388,867.862,72.184,867.862,71.931 M868.583,79.914h-0.516v-6.814h0.516V79.914z"/>
<path d="M873.919,77.121h-2.152v2.793h-0.516v-6.814h2.688c1.109,0,2.016,0.905,2.016,2.016c0,0.926-0.633,1.705-1.5,1.938
	l1.695,2.862h-0.595L873.919,77.121z M871.767,76.633h2.172c0.828,0,1.5-0.683,1.5-1.519c0-0.849-0.672-1.529-1.5-1.529h-2.172
	V76.633z"/>
<polygon points="882.128,79.914 878.71,76.556 878.71,79.914 878.194,79.914 878.194,73.099 878.71,73.099 878.71,76.273 
	882.03,73.099 882.722,73.099 879.274,76.41 882.819,79.914 "/>
<polygon points="888.661,79.428 888.661,79.914 884.737,79.914 884.737,73.099 888.612,73.099 888.612,73.585 885.253,73.585 
	885.253,76.234 888.368,76.234 888.368,76.721 885.253,76.721 885.253,79.428 "/>
<polygon points="895.087,73.585 892.946,73.585 892.946,79.914 892.419,79.914 892.419,73.585 890.278,73.585 890.278,73.099 
	895.087,73.099 "/>
<path d="M896.927,71.931c0-0.254,0.195-0.458,0.458-0.458c0.253,0,0.448,0.204,0.448,0.458c0,0.253-0.195,0.457-0.448,0.457
	C897.122,72.388,896.927,72.184,896.927,71.931 M897.647,79.914h-0.516v-6.814h0.516V79.914z"/>
</svg>
